<svg xmlns="http://www.w3.org/2000/svg" xmlns:xlink="http://www.w3.org/1999/xlink" width="600" zoomAndPan="magnify" viewBox="0 0 450 165.000002" height="220" preserveAspectRatio="xMidYMid meet" version="1.0"><defs><g/><clipPath id="eeea27d7ce"><path d="M 69.992188 124.835938 L 171.417969 124.835938 L 171.417969 134.394531 L 69.992188 134.394531 Z M 69.992188 124.835938 " clip-rule="nonzero"/></clipPath></defs><g fill="#000000" fill-opacity="1"><g transform="translate(59.317562, 109.585493)"><g><path d="M 74.4375 0 L 60.078125 0 L 26.28125 -47.765625 L 39.140625 -47.765625 C 42.421875 -47.765625 45.335938 -47.988281 47.890625 -48.4375 C 50.359375 -48.800781 52.273438 -49.257812 53.640625 -49.8125 C 56.472656 -51.09375 58.707031 -52.960938 60.34375 -55.421875 C 61.988281 -57.796875 62.8125 -60.257812 62.8125 -62.8125 C 62.8125 -65.363281 62.035156 -67.78125 60.484375 -70.0625 C 58.929688 -72.25 56.695312 -74.070312 53.78125 -75.53125 C 50.863281 -76.90625 47.488281 -77.59375 43.65625 -77.59375 L 22.984375 -77.59375 L 23.265625 0 L 11.625 0 L 11.625 -89.078125 L 43.65625 -89.078125 C 47.9375 -89.078125 51.953125 -88.394531 55.703125 -87.03125 C 59.441406 -85.664062 62.722656 -83.703125 65.546875 -81.140625 C 68.285156 -78.679688 70.429688 -75.851562 71.984375 -72.65625 C 73.441406 -69.46875 74.171875 -66.1875 74.171875 -62.8125 C 74.171875 -57.425781 72.53125 -52.59375 69.25 -48.3125 C 66.507812 -44.65625 62.8125 -41.6875 58.15625 -39.40625 C 54.601562 -38.132812 51.457031 -37.5 48.71875 -37.5 Z M 74.4375 0 "/></g></g></g><g fill="#000000" fill-opacity="1"><g transform="translate(130.339803, 109.585493)"><g><path d="M 67.734375 -17.25 L 26.953125 -17.25 L 19.015625 0 L 6.4375 0 L 48.171875 -90.046875 L 87.71875 0 L 75.265625 0 Z M 62.8125 -28.59375 L 47.765625 -62.40625 L 32.15625 -28.59375 Z M 62.8125 -28.59375 "/></g></g></g><g fill="#000000" fill-opacity="1"><g transform="translate(212.446531, 109.585493)"><g><path d="M 23.265625 0 L 11.765625 0 L 11.765625 -90.453125 L 69.65625 -27.921875 L 69.65625 -89.078125 L 81.015625 -89.078125 L 81.015625 2.1875 L 23.265625 -60.625 Z M 23.265625 0 "/></g></g></g><g fill="#000000" fill-opacity="1"><g transform="translate(293.184806, 109.585493)"><g><path d="M 67.734375 -17.25 L 26.953125 -17.25 L 19.015625 0 L 6.4375 0 L 48.171875 -90.046875 L 87.71875 0 L 75.265625 0 Z M 62.8125 -28.59375 L 47.765625 -62.40625 L 32.15625 -28.59375 Z M 62.8125 -28.59375 "/></g></g></g><g clip-path="url(#eeea27d7ce)"><path fill="#000000" d="M 69.992188 124.835938 L 171.433594 124.835938 L 171.433594 134.394531 L 69.992188 134.394531 Z M 69.992188 124.835938 " fill-opacity="1" fill-rule="nonzero"/></g><g fill="#000000" fill-opacity="1"><g transform="translate(179.249375, 134.059639)"><g><path d="M 0.984375 0 L 0.984375 -8.21875 L 4.234375 -8.21875 C 5.109375 -8.21875 5.867188 -8.046875 6.515625 -7.703125 C 7.171875 -7.359375 7.675781 -6.875 8.03125 -6.25 C 8.394531 -5.632812 8.578125 -4.921875 8.578125 -4.109375 C 8.578125 -3.285156 8.394531 -2.566406 8.03125 -1.953125 C 7.675781 -1.335938 7.171875 -0.859375 6.515625 -0.515625 C 5.867188 -0.171875 5.109375 0 4.234375 0 Z M 2.859375 -1.71875 L 4.203125 -1.71875 C 4.691406 -1.71875 5.117188 -1.816406 5.484375 -2.015625 C 5.859375 -2.210938 6.144531 -2.488281 6.34375 -2.84375 C 6.550781 -3.207031 6.65625 -3.628906 6.65625 -4.109375 C 6.65625 -4.597656 6.550781 -5.019531 6.34375 -5.375 C 6.144531 -5.726562 5.859375 -6.003906 5.484375 -6.203125 C 5.109375 -6.410156 4.675781 -6.515625 4.1875 -6.515625 L 2.859375 -6.515625 Z M 2.859375 -1.71875 "/></g></g></g><g fill="#000000" fill-opacity="1"><g transform="translate(191.169932, 134.059639)"><g><path d="M 0.984375 0 L 0.984375 -8.21875 L 6.390625 -8.21875 L 6.390625 -6.65625 L 2.84375 -6.65625 L 2.84375 -4.953125 L 6.078125 -4.953125 L 6.078125 -3.390625 L 2.84375 -3.390625 L 2.84375 -1.59375 L 6.515625 -1.59375 L 6.515625 0 Z M 0.984375 0 "/></g></g></g><g fill="#000000" fill-opacity="1"><g transform="translate(201.140913, 134.059639)"><g><path d="M 3.265625 0 L 0.109375 -8.21875 L 2.109375 -8.21875 L 3.203125 -5.296875 L 4.1875 -2.6875 L 6.265625 -8.21875 L 8.265625 -8.21875 L 5.09375 0 Z M 3.265625 0 "/></g></g></g><g fill="#000000" fill-opacity="1"><g transform="translate(212.35681, 134.059639)"><g><path d="M 0.984375 0 L 0.984375 -8.21875 L 6.390625 -8.21875 L 6.390625 -6.65625 L 2.84375 -6.65625 L 2.84375 -4.953125 L 6.078125 -4.953125 L 6.078125 -3.390625 L 2.84375 -3.390625 L 2.84375 -1.59375 L 6.515625 -1.59375 L 6.515625 0 Z M 0.984375 0 "/></g></g></g><g fill="#000000" fill-opacity="1"><g transform="translate(222.32779, 134.059639)"><g><path d="M 0.984375 0 L 0.984375 -8.21875 L 2.859375 -8.21875 L 2.859375 -1.75 L 6.453125 -1.75 L 6.453125 0 Z M 0.984375 0 "/></g></g></g><g fill="#000000" fill-opacity="1"><g transform="translate(231.94644, 134.059639)"><g><path d="M 4.890625 0.171875 C 4.035156 0.171875 3.273438 -0.0078125 2.609375 -0.375 C 1.953125 -0.738281 1.4375 -1.242188 1.0625 -1.890625 C 0.6875 -2.535156 0.5 -3.273438 0.5 -4.109375 C 0.5 -4.953125 0.6875 -5.691406 1.0625 -6.328125 C 1.4375 -6.972656 1.953125 -7.476562 2.609375 -7.84375 C 3.273438 -8.207031 4.035156 -8.390625 4.890625 -8.390625 C 5.753906 -8.390625 6.515625 -8.207031 7.171875 -7.84375 C 7.828125 -7.476562 8.34375 -6.972656 8.71875 -6.328125 C 9.09375 -5.691406 9.28125 -4.953125 9.28125 -4.109375 C 9.28125 -3.273438 9.09375 -2.535156 8.71875 -1.890625 C 8.34375 -1.242188 7.828125 -0.738281 7.171875 -0.375 C 6.515625 -0.0078125 5.753906 0.171875 4.890625 0.171875 Z M 2.40625 -4.109375 C 2.40625 -3.617188 2.507812 -3.1875 2.71875 -2.8125 C 2.9375 -2.4375 3.226562 -2.140625 3.59375 -1.921875 C 3.96875 -1.710938 4.398438 -1.609375 4.890625 -1.609375 C 5.378906 -1.609375 5.8125 -1.710938 6.1875 -1.921875 C 6.5625 -2.140625 6.851562 -2.4375 7.0625 -2.8125 C 7.269531 -3.1875 7.375 -3.617188 7.375 -4.109375 C 7.375 -4.609375 7.269531 -5.046875 7.0625 -5.421875 C 6.851562 -5.796875 6.5625 -6.085938 6.1875 -6.296875 C 5.8125 -6.503906 5.378906 -6.609375 4.890625 -6.609375 C 4.398438 -6.609375 3.96875 -6.503906 3.59375 -6.296875 C 3.226562 -6.085938 2.9375 -5.796875 2.71875 -5.421875 C 2.507812 -5.046875 2.40625 -4.609375 2.40625 -4.109375 Z M 2.40625 -4.109375 "/></g></g></g><g fill="#000000" fill-opacity="1"><g transform="translate(244.583396, 134.059639)"><g><path d="M 0.984375 0 L 0.984375 -8.21875 L 4.203125 -8.21875 C 4.867188 -8.21875 5.441406 -8.097656 5.921875 -7.859375 C 6.410156 -7.617188 6.789062 -7.273438 7.0625 -6.828125 C 7.332031 -6.378906 7.46875 -5.851562 7.46875 -5.25 C 7.46875 -4.65625 7.332031 -4.132812 7.0625 -3.6875 C 6.789062 -3.238281 6.410156 -2.894531 5.921875 -2.65625 C 5.441406 -2.414062 4.867188 -2.296875 4.203125 -2.296875 L 2.859375 -2.296875 L 2.859375 0 Z M 2.84375 -3.90625 L 4.046875 -3.90625 C 4.535156 -3.90625 4.910156 -4.019531 5.171875 -4.25 C 5.429688 -4.476562 5.5625 -4.804688 5.5625 -5.234375 C 5.5625 -5.671875 5.429688 -6.003906 5.171875 -6.234375 C 4.910156 -6.472656 4.535156 -6.59375 4.046875 -6.59375 L 2.84375 -6.59375 Z M 2.84375 -3.90625 "/></g></g></g><g fill="#000000" fill-opacity="1"><g transform="translate(255.247299, 134.059639)"><g><path d="M 0.984375 0 L 0.984375 -8.21875 L 6.390625 -8.21875 L 6.390625 -6.65625 L 2.84375 -6.65625 L 2.84375 -4.953125 L 6.078125 -4.953125 L 6.078125 -3.390625 L 2.84375 -3.390625 L 2.84375 -1.59375 L 6.515625 -1.59375 L 6.515625 0 Z M 0.984375 0 "/></g></g></g><g fill="#000000" fill-opacity="1"><g transform="translate(265.21828, 134.059639)"><g><path d="M 0.984375 0 L 0.984375 -8.21875 L 4.5 -8.21875 C 5.125 -8.21875 5.664062 -8.101562 6.125 -7.875 C 6.59375 -7.65625 6.953125 -7.332031 7.203125 -6.90625 C 7.453125 -6.488281 7.578125 -5.984375 7.578125 -5.390625 C 7.578125 -4.785156 7.4375 -4.265625 7.15625 -3.828125 C 6.882812 -3.398438 6.503906 -3.078125 6.015625 -2.859375 L 7.71875 0 L 5.5625 0 L 4.09375 -2.5625 L 2.859375 -2.5625 L 2.859375 0 Z M 2.828125 -4.140625 L 4.25 -4.140625 C 4.71875 -4.140625 5.070312 -4.242188 5.3125 -4.453125 C 5.5625 -4.671875 5.6875 -4.976562 5.6875 -5.375 C 5.6875 -5.78125 5.5625 -6.085938 5.3125 -6.296875 C 5.070312 -6.515625 4.71875 -6.625 4.25 -6.625 L 2.828125 -6.625 Z M 2.828125 -4.140625 "/></g></g></g><g fill="#000000" fill-opacity="1"><g transform="translate(276.340214, 134.059639)"><g/></g></g><g fill="#000000" fill-opacity="1"><g transform="translate(281.954023, 134.059639)"><g><path d="M 3.484375 0.171875 C 2.554688 0.171875 1.816406 -0.03125 1.265625 -0.4375 C 0.722656 -0.851562 0.453125 -1.414062 0.453125 -2.125 C 0.453125 -3.082031 0.96875 -3.832031 2 -4.375 C 1.6875 -4.738281 1.453125 -5.070312 1.296875 -5.375 C 1.148438 -5.6875 1.078125 -6.003906 1.078125 -6.328125 C 1.078125 -6.734375 1.1875 -7.09375 1.40625 -7.40625 C 1.625 -7.71875 1.929688 -7.957031 2.328125 -8.125 C 2.734375 -8.300781 3.195312 -8.390625 3.71875 -8.390625 C 4.257812 -8.390625 4.726562 -8.296875 5.125 -8.109375 C 5.53125 -7.929688 5.84375 -7.679688 6.0625 -7.359375 C 6.289062 -7.035156 6.40625 -6.65625 6.40625 -6.21875 C 6.40625 -5.195312 5.800781 -4.410156 4.59375 -3.859375 L 5.796875 -2.609375 C 6.003906 -3.003906 6.113281 -3.453125 6.125 -3.953125 L 7.65625 -3.953125 C 7.65625 -3.472656 7.585938 -3.019531 7.453125 -2.59375 C 7.316406 -2.175781 7.128906 -1.800781 6.890625 -1.46875 L 8.296875 0 L 6.328125 0 L 5.84375 -0.484375 C 5.53125 -0.273438 5.175781 -0.113281 4.78125 0 C 4.382812 0.113281 3.953125 0.171875 3.484375 0.171875 Z M 2.203125 -2.25 C 2.203125 -1.957031 2.316406 -1.722656 2.546875 -1.546875 C 2.785156 -1.378906 3.117188 -1.296875 3.546875 -1.296875 C 3.972656 -1.296875 4.363281 -1.382812 4.71875 -1.5625 L 3.03125 -3.296875 C 2.476562 -3.035156 2.203125 -2.6875 2.203125 -2.25 Z M 2.765625 -6.21875 C 2.765625 -6.070312 2.816406 -5.90625 2.921875 -5.71875 C 3.035156 -5.539062 3.242188 -5.289062 3.546875 -4.96875 C 3.953125 -5.125 4.25 -5.296875 4.4375 -5.484375 C 4.625 -5.679688 4.71875 -5.898438 4.71875 -6.140625 C 4.71875 -6.390625 4.628906 -6.582031 4.453125 -6.71875 C 4.273438 -6.863281 4.03125 -6.9375 3.71875 -6.9375 C 3.425781 -6.9375 3.191406 -6.875 3.015625 -6.75 C 2.847656 -6.625 2.765625 -6.445312 2.765625 -6.21875 Z M 2.765625 -6.21875 "/></g></g></g><g fill="#000000" fill-opacity="1"><g transform="translate(293.41655, 134.059639)"><g/></g></g><g fill="#000000" fill-opacity="1"><g transform="translate(299.03036, 134.059639)"><g><path d="M 0.984375 0 L 0.984375 -8.21875 L 4.234375 -8.21875 C 5.109375 -8.21875 5.867188 -8.046875 6.515625 -7.703125 C 7.171875 -7.359375 7.675781 -6.875 8.03125 -6.25 C 8.394531 -5.632812 8.578125 -4.921875 8.578125 -4.109375 C 8.578125 -3.285156 8.394531 -2.566406 8.03125 -1.953125 C 7.675781 -1.335938 7.171875 -0.859375 6.515625 -0.515625 C 5.867188 -0.171875 5.109375 0 4.234375 0 Z M 2.859375 -1.71875 L 4.203125 -1.71875 C 4.691406 -1.71875 5.117188 -1.816406 5.484375 -2.015625 C 5.859375 -2.210938 6.144531 -2.488281 6.34375 -2.84375 C 6.550781 -3.207031 6.65625 -3.628906 6.65625 -4.109375 C 6.65625 -4.597656 6.550781 -5.019531 6.34375 -5.375 C 6.144531 -5.726562 5.859375 -6.003906 5.484375 -6.203125 C 5.109375 -6.410156 4.675781 -6.515625 4.1875 -6.515625 L 2.859375 -6.515625 Z M 2.859375 -1.71875 "/></g></g></g><g fill="#000000" fill-opacity="1"><g transform="translate(310.950918, 134.059639)"><g><path d="M 0.984375 0 L 0.984375 -8.21875 L 6.390625 -8.21875 L 6.390625 -6.65625 L 2.84375 -6.65625 L 2.84375 -4.953125 L 6.078125 -4.953125 L 6.078125 -3.390625 L 2.84375 -3.390625 L 2.84375 -1.59375 L 6.515625 -1.59375 L 6.515625 0 Z M 0.984375 0 "/></g></g></g><g fill="#000000" fill-opacity="1"><g transform="translate(320.921898, 134.059639)"><g><path d="M 3.859375 0.171875 C 3.160156 0.171875 2.5625 0.0546875 2.0625 -0.171875 C 1.570312 -0.398438 1.191406 -0.722656 0.921875 -1.140625 C 0.648438 -1.566406 0.515625 -2.0625 0.515625 -2.625 L 2.34375 -2.625 C 2.34375 -2.226562 2.476562 -1.921875 2.75 -1.703125 C 3.019531 -1.484375 3.382812 -1.375 3.84375 -1.375 C 4.238281 -1.375 4.546875 -1.445312 4.765625 -1.59375 C 4.992188 -1.75 5.109375 -1.96875 5.109375 -2.25 C 5.109375 -2.53125 4.96875 -2.757812 4.6875 -2.9375 C 4.414062 -3.125 3.992188 -3.28125 3.421875 -3.40625 C 2.453125 -3.613281 1.738281 -3.921875 1.28125 -4.328125 C 0.820312 -4.742188 0.59375 -5.285156 0.59375 -5.953125 C 0.59375 -6.703125 0.863281 -7.296875 1.40625 -7.734375 C 1.957031 -8.171875 2.707031 -8.390625 3.65625 -8.390625 C 4.300781 -8.390625 4.863281 -8.273438 5.34375 -8.046875 C 5.820312 -7.828125 6.191406 -7.515625 6.453125 -7.109375 C 6.710938 -6.710938 6.84375 -6.234375 6.84375 -5.671875 L 5.046875 -5.671875 C 5.046875 -6.046875 4.925781 -6.335938 4.6875 -6.546875 C 4.445312 -6.753906 4.109375 -6.859375 3.671875 -6.859375 C 3.285156 -6.859375 2.976562 -6.78125 2.75 -6.625 C 2.519531 -6.476562 2.40625 -6.269531 2.40625 -6 C 2.40625 -5.738281 2.53125 -5.519531 2.78125 -5.34375 C 3.03125 -5.175781 3.46875 -5.019531 4.09375 -4.875 C 5.125 -4.632812 5.863281 -4.3125 6.3125 -3.90625 C 6.769531 -3.5 7 -2.96875 7 -2.3125 C 7 -1.539062 6.71875 -0.929688 6.15625 -0.484375 C 5.601562 -0.046875 4.835938 0.171875 3.859375 0.171875 Z M 3.859375 0.171875 "/></g></g></g><g fill="#000000" fill-opacity="1"><g transform="translate(331.303928, 134.059639)"><g><path d="M 0.984375 0 L 0.984375 -8.21875 L 2.859375 -8.21875 L 2.859375 0 Z M 0.984375 0 "/></g></g></g><g fill="#000000" fill-opacity="1"><g transform="translate(337.99822, 134.059639)"><g><path d="M 4.8125 0.171875 C 3.976562 0.171875 3.234375 -0.0078125 2.578125 -0.375 C 1.929688 -0.738281 1.421875 -1.242188 1.046875 -1.890625 C 0.679688 -2.535156 0.5 -3.273438 0.5 -4.109375 C 0.5 -4.953125 0.679688 -5.691406 1.046875 -6.328125 C 1.410156 -6.972656 1.914062 -7.476562 2.5625 -7.84375 C 3.207031 -8.207031 3.945312 -8.390625 4.78125 -8.390625 C 5.445312 -8.390625 6.0625 -8.269531 6.625 -8.03125 C 7.1875 -7.800781 7.664062 -7.472656 8.0625 -7.046875 C 8.457031 -6.617188 8.738281 -6.113281 8.90625 -5.53125 L 6.890625 -5.53125 C 6.703125 -5.894531 6.425781 -6.175781 6.0625 -6.375 C 5.695312 -6.570312 5.28125 -6.671875 4.8125 -6.671875 C 4.332031 -6.671875 3.910156 -6.5625 3.546875 -6.34375 C 3.179688 -6.125 2.894531 -5.820312 2.6875 -5.4375 C 2.476562 -5.050781 2.375 -4.609375 2.375 -4.109375 C 2.375 -3.617188 2.472656 -3.179688 2.671875 -2.796875 C 2.878906 -2.410156 3.164062 -2.101562 3.53125 -1.875 C 3.90625 -1.65625 4.34375 -1.546875 4.84375 -1.546875 C 5.445312 -1.546875 5.945312 -1.695312 6.34375 -2 C 6.738281 -2.3125 7 -2.71875 7.125 -3.21875 L 4.453125 -3.21875 L 4.453125 -4.671875 L 9.09375 -4.671875 C 9.144531 -3.960938 9.078125 -3.3125 8.890625 -2.71875 C 8.703125 -2.132812 8.414062 -1.625 8.03125 -1.1875 C 7.65625 -0.757812 7.195312 -0.425781 6.65625 -0.1875 C 6.113281 0.0507812 5.5 0.171875 4.8125 0.171875 Z M 4.8125 0.171875 "/></g></g></g><g fill="#000000" fill-opacity="1"><g transform="translate(350.435527, 134.059639)"><g><path d="M 0.984375 0 L 0.984375 -8.21875 L 2.578125 -8.21875 L 6.203125 -3.21875 L 6.203125 -8.21875 L 8.0625 -8.21875 L 8.0625 0 L 6.46875 0 L 2.84375 -5.046875 L 2.84375 0 Z M 0.984375 0 "/></g></g></g><g fill="#000000" fill-opacity="1"><g transform="translate(362.332594, 134.059639)"><g><path d="M 0.984375 0 L 0.984375 -8.21875 L 6.390625 -8.21875 L 6.390625 -6.65625 L 2.84375 -6.65625 L 2.84375 -4.953125 L 6.078125 -4.953125 L 6.078125 -3.390625 L 2.84375 -3.390625 L 2.84375 -1.59375 L 6.515625 -1.59375 L 6.515625 0 Z M 0.984375 0 "/></g></g></g><g fill="#000000" fill-opacity="1"><g transform="translate(372.303574, 134.059639)"><g><path d="M 0.984375 0 L 0.984375 -8.21875 L 4.5 -8.21875 C 5.125 -8.21875 5.664062 -8.101562 6.125 -7.875 C 6.59375 -7.65625 6.953125 -7.332031 7.203125 -6.90625 C 7.453125 -6.488281 7.578125 -5.984375 7.578125 -5.390625 C 7.578125 -4.785156 7.4375 -4.265625 7.15625 -3.828125 C 6.882812 -3.398438 6.503906 -3.078125 6.015625 -2.859375 L 7.71875 0 L 5.5625 0 L 4.09375 -2.5625 L 2.859375 -2.5625 L 2.859375 0 Z M 2.828125 -4.140625 L 4.25 -4.140625 C 4.71875 -4.140625 5.070312 -4.242188 5.3125 -4.453125 C 5.5625 -4.671875 5.6875 -4.976562 5.6875 -5.375 C 5.6875 -5.78125 5.5625 -6.085938 5.3125 -6.296875 C 5.070312 -6.515625 4.71875 -6.625 4.25 -6.625 L 2.828125 -6.625 Z M 2.828125 -4.140625 "/></g></g></g><g fill="#000000" fill-opacity="1"><g transform="translate(346.046678, 8.108708)"><g><path d="M 0.328125 0 L 1.765625 -7.203125 L 6.5 -7.203125 L 6.234375 -5.8125 L 3.140625 -5.8125 L 2.84375 -4.328125 L 5.65625 -4.328125 L 5.375 -2.96875 L 2.578125 -2.96875 L 2.265625 -1.390625 L 5.453125 -1.390625 L 5.171875 0 Z M 0.328125 0 "/></g></g></g><g fill="#000000" fill-opacity="1"><g transform="translate(352.289066, 8.108708)"><g><path d="M 2.90625 0.140625 C 2.300781 0.140625 1.789062 0.046875 1.375 -0.140625 C 0.96875 -0.335938 0.675781 -0.617188 0.5 -0.984375 C 0.320312 -1.347656 0.28125 -1.78125 0.375 -2.28125 L 1.96875 -2.28125 C 1.90625 -1.945312 1.960938 -1.679688 2.140625 -1.484375 C 2.328125 -1.296875 2.617188 -1.203125 3.015625 -1.203125 C 3.378906 -1.203125 3.671875 -1.269531 3.890625 -1.40625 C 4.117188 -1.539062 4.257812 -1.722656 4.3125 -1.953125 C 4.363281 -2.210938 4.300781 -2.425781 4.125 -2.59375 C 3.945312 -2.757812 3.613281 -2.894531 3.125 -3 C 2.332031 -3.164062 1.75 -3.445312 1.375 -3.84375 C 1.007812 -4.238281 0.890625 -4.753906 1.015625 -5.390625 C 1.128906 -5.984375 1.441406 -6.457031 1.953125 -6.8125 C 2.460938 -7.164062 3.132812 -7.34375 3.96875 -7.34375 C 4.84375 -7.34375 5.5 -7.128906 5.9375 -6.703125 C 6.382812 -6.273438 6.554688 -5.703125 6.453125 -4.984375 L 4.859375 -4.984375 C 4.921875 -5.285156 4.867188 -5.53125 4.703125 -5.71875 C 4.535156 -5.914062 4.25 -6.015625 3.84375 -6.015625 C 3.507812 -6.015625 3.234375 -5.945312 3.015625 -5.8125 C 2.796875 -5.675781 2.664062 -5.5 2.625 -5.28125 C 2.570312 -5.019531 2.640625 -4.804688 2.828125 -4.640625 C 3.015625 -4.484375 3.359375 -4.347656 3.859375 -4.234375 C 4.660156 -4.054688 5.238281 -3.765625 5.59375 -3.359375 C 5.945312 -2.953125 6.066406 -2.445312 5.953125 -1.84375 C 5.835938 -1.238281 5.515625 -0.753906 4.984375 -0.390625 C 4.460938 -0.0351562 3.769531 0.140625 2.90625 0.140625 Z M 2.90625 0.140625 "/></g></g></g><g fill="#000000" fill-opacity="1"><g transform="translate(358.87082, 8.108708)"><g><path d="M 2.03125 0 L 3.171875 -5.671875 L 0.90625 -5.671875 L 1.21875 -7.203125 L 7.40625 -7.203125 L 7.09375 -5.671875 L 4.828125 -5.671875 L 3.703125 0 Z M 2.03125 0 "/></g></g></g><g fill="#000000" fill-opacity="1"><g transform="translate(365.689104, 8.108708)"><g><path d="M 0.328125 0 L 1.765625 -7.203125 L 4.5625 -7.203125 C 5.300781 -7.203125 5.925781 -7.035156 6.4375 -6.703125 C 6.957031 -6.367188 7.320312 -5.914062 7.53125 -5.34375 C 7.75 -4.78125 7.789062 -4.132812 7.65625 -3.40625 C 7.507812 -2.707031 7.234375 -2.101562 6.828125 -1.59375 C 6.421875 -1.082031 5.90625 -0.6875 5.28125 -0.40625 C 4.664062 -0.132812 3.972656 0 3.203125 0 Z M 2.28125 -1.5 L 3.390625 -1.5 C 3.828125 -1.5 4.222656 -1.585938 4.578125 -1.765625 C 4.941406 -1.941406 5.25 -2.1875 5.5 -2.5 C 5.75 -2.820312 5.914062 -3.195312 6 -3.625 C 6.125 -4.257812 6.03125 -4.765625 5.71875 -5.140625 C 5.414062 -5.515625 4.941406 -5.703125 4.296875 -5.703125 L 3.109375 -5.703125 Z M 2.28125 -1.5 "/></g></g></g><g fill="#000000" fill-opacity="1"><g transform="translate(345.979726, 17.535633)"><g><path d="M 0 0 L 0.21875 -1.15625 L 3.671875 -3.703125 C 3.984375 -3.929688 4.21875 -4.144531 4.375 -4.34375 C 4.53125 -4.550781 4.628906 -4.757812 4.671875 -4.96875 C 4.734375 -5.269531 4.6875 -5.503906 4.53125 -5.671875 C 4.382812 -5.847656 4.15625 -5.9375 3.84375 -5.9375 C 3.507812 -5.9375 3.226562 -5.832031 3 -5.625 C 2.769531 -5.425781 2.609375 -5.144531 2.515625 -4.78125 L 1 -4.78125 C 1.175781 -5.59375 1.519531 -6.222656 2.03125 -6.671875 C 2.550781 -7.117188 3.203125 -7.34375 3.984375 -7.34375 C 4.523438 -7.34375 4.976562 -7.238281 5.34375 -7.03125 C 5.71875 -6.820312 5.984375 -6.535156 6.140625 -6.171875 C 6.304688 -5.804688 6.34375 -5.390625 6.25 -4.921875 C 6.164062 -4.492188 5.984375 -4.09375 5.703125 -3.71875 C 5.421875 -3.351562 5.007812 -2.976562 4.46875 -2.59375 L 2.9375 -1.421875 L 5.6875 -1.421875 L 5.390625 0 Z M 0 0 "/></g></g></g><g fill="#000000" fill-opacity="1"><g transform="translate(352.612897, 17.535633)"><g><path d="M 3.171875 0.140625 C 2.523438 0.140625 1.988281 -0.015625 1.5625 -0.328125 C 1.132812 -0.640625 0.84375 -1.082031 0.6875 -1.65625 C 0.539062 -2.226562 0.546875 -2.914062 0.703125 -3.71875 C 0.941406 -4.851562 1.378906 -5.738281 2.015625 -6.375 C 2.660156 -7.019531 3.457031 -7.34375 4.40625 -7.34375 C 5.050781 -7.34375 5.585938 -7.1875 6.015625 -6.875 C 6.441406 -6.5625 6.726562 -6.113281 6.875 -5.53125 C 7.03125 -4.957031 7.03125 -4.269531 6.875 -3.46875 C 6.644531 -2.332031 6.207031 -1.445312 5.5625 -0.8125 C 4.914062 -0.175781 4.117188 0.140625 3.171875 0.140625 Z M 2.296875 -3.5625 C 2.148438 -2.84375 2.160156 -2.285156 2.328125 -1.890625 C 2.503906 -1.503906 2.828125 -1.3125 3.296875 -1.3125 C 3.785156 -1.3125 4.203125 -1.515625 4.546875 -1.921875 C 4.890625 -2.335938 5.132812 -2.90625 5.28125 -3.625 C 5.425781 -4.34375 5.410156 -4.894531 5.234375 -5.28125 C 5.054688 -5.675781 4.738281 -5.875 4.28125 -5.875 C 3.800781 -5.875 3.382812 -5.671875 3.03125 -5.265625 C 2.6875 -4.859375 2.441406 -4.289062 2.296875 -3.5625 Z M 2.296875 -3.5625 "/></g></g></g><g fill="#000000" fill-opacity="1"><g transform="translate(359.832256, 17.535633)"><g><path d="M 0 0 L 0.21875 -1.15625 L 3.671875 -3.703125 C 3.984375 -3.929688 4.21875 -4.144531 4.375 -4.34375 C 4.53125 -4.550781 4.628906 -4.757812 4.671875 -4.96875 C 4.734375 -5.269531 4.6875 -5.503906 4.53125 -5.671875 C 4.382812 -5.847656 4.15625 -5.9375 3.84375 -5.9375 C 3.507812 -5.9375 3.226562 -5.832031 3 -5.625 C 2.769531 -5.425781 2.609375 -5.144531 2.515625 -4.78125 L 1 -4.78125 C 1.175781 -5.59375 1.519531 -6.222656 2.03125 -6.671875 C 2.550781 -7.117188 3.203125 -7.34375 3.984375 -7.34375 C 4.523438 -7.34375 4.976562 -7.238281 5.34375 -7.03125 C 5.71875 -6.820312 5.984375 -6.535156 6.140625 -6.171875 C 6.304688 -5.804688 6.34375 -5.390625 6.25 -4.921875 C 6.164062 -4.492188 5.984375 -4.09375 5.703125 -3.71875 C 5.421875 -3.351562 5.007812 -2.976562 4.46875 -2.59375 L 2.9375 -1.421875 L 5.6875 -1.421875 L 5.390625 0 Z M 0 0 "/></g></g></g><g fill="#000000" fill-opacity="1"><g transform="translate(366.465428, 17.535633)"><g><path d="M 3.171875 0.140625 C 2.523438 0.140625 1.988281 -0.015625 1.5625 -0.328125 C 1.132812 -0.640625 0.84375 -1.082031 0.6875 -1.65625 C 0.539062 -2.226562 0.546875 -2.914062 0.703125 -3.71875 C 0.941406 -4.851562 1.378906 -5.738281 2.015625 -6.375 C 2.660156 -7.019531 3.457031 -7.34375 4.40625 -7.34375 C 5.050781 -7.34375 5.585938 -7.1875 6.015625 -6.875 C 6.441406 -6.5625 6.726562 -6.113281 6.875 -5.53125 C 7.03125 -4.957031 7.03125 -4.269531 6.875 -3.46875 C 6.644531 -2.332031 6.207031 -1.445312 5.5625 -0.8125 C 4.914062 -0.175781 4.117188 0.140625 3.171875 0.140625 Z M 2.296875 -3.5625 C 2.148438 -2.84375 2.160156 -2.285156 2.328125 -1.890625 C 2.503906 -1.503906 2.828125 -1.3125 3.296875 -1.3125 C 3.785156 -1.3125 4.203125 -1.515625 4.546875 -1.921875 C 4.890625 -2.335938 5.132812 -2.90625 5.28125 -3.625 C 5.425781 -4.34375 5.410156 -4.894531 5.234375 -5.28125 C 5.054688 -5.675781 4.738281 -5.875 4.28125 -5.875 C 3.800781 -5.875 3.382812 -5.671875 3.03125 -5.265625 C 2.6875 -4.859375 2.441406 -4.289062 2.296875 -3.5625 Z M 2.296875 -3.5625 "/></g></g></g></svg>